# xmcd CD database file
#
# Track frame offsets:
#	150
#	36780
#	61395
#	90447
#	97790
#	107318
#	110588
#	137111
#	140824
#	164674
#
# Disc length: 2373 seconds
#
# Revision: 1
# Processed by: cddbd v1.5.2PL0 Copyright (c) Steve Scherf et al.
# Submitted via: CDex 1.51
#
DISCID=8209430a
DTITLE=Franz K. Ttrio - Silex
DYEAR=2005
DGENRE=Jazz
TTITLE0=Ostinato
TTITLE1=Summertime
TTITLE2=Stop all the clocks
TTITLE3=Ames errantes - 1
TTITLE4=Ames errantes - 2
TTITLE5=Ames errantes - 3
TTITLE6=Jabberwocky
TTITLE7=Chiunche nasce
TTITLE8=Duke Ellington's sound of love
TTITLE9=Strange fruit
EXTD=YEAR: 2005
EXTT0=
EXTT1=
EXTT2=
EXTT3=
EXTT4=
EXTT5=
EXTT6=
EXTT7=
EXTT8=
EXTT9=
PLAYORDER=
